<svg xmlns="http://www.w3.org/2000/svg" viewBox="0 0 240 240" width="240" height="240">
  <defs>
    <linearGradient id="brandGrad" x1="0%" y1="0%" x2="100%" y2="100%">
      <stop offset="0%" stop-color="#8B5CF6"/>
      <stop offset="55%" stop-color="#A78BFA"/>
      <stop offset="100%" stop-color="#F59E0B"/>
    </linearGradient>
    <linearGradient id="goldGrad" x1="0%" y1="0%" x2="100%" y2="100%">
      <stop offset="0%" stop-color="#F59E0B"/>
      <stop offset="100%" stop-color="#D97706"/>
    </linearGradient>
    <radialGradient id="orbGlow" cx="50%" cy="50%" r="50%">
      <stop offset="0%" stop-color="#8B5CF6" stop-opacity="0.2"/>
      <stop offset="100%" stop-color="#8B5CF6" stop-opacity="0"/>
    </radialGradient>
    <filter id="spireGlow" x="-80%" y="-80%" width="260%" height="260%">
      <feGaussianBlur in="SourceGraphic" stdDeviation="2.5" result="blur"/>
      <feMerge>
        <feMergeNode in="blur"/>
        <feMergeNode in="SourceGraphic"/>
      </feMerge>
    </filter>
    <filter id="softShadow">
      <feDropShadow dx="0" dy="6" stdDeviation="10" flood-color="#8B5CF6" flood-opacity="0.22"/>
    </filter>
    <clipPath id="iconClip">
      <rect x="0" y="0" width="240" height="240" rx="48"/>
    </clipPath>
  </defs>

  <g filter="url(#softShadow)">
    <rect x="0" y="0" width="240" height="240" rx="48" fill="#1E1B4B"/>
    <rect x="0" y="0" width="240" height="240" rx="48" fill="url(#brandGrad)" fill-opacity="0.08"/>
    <rect x="0" y="0" width="240" height="240" rx="48" fill="none" stroke="#8B5CF6" stroke-width="1.5" stroke-opacity="0.35"/>

    <g clip-path="url(#iconClip)">
      <ellipse cx="120" cy="120" rx="110" ry="110" fill="url(#orbGlow)"/>

      <circle cx="120" cy="120" r="88" fill="none" stroke="#8B5CF6" stroke-width="1" stroke-opacity="0.22"/>
      <ellipse cx="120" cy="120" rx="88" ry="28" fill="none" stroke="#8B5CF6" stroke-width="0.8" stroke-opacity="0.18"/>
      <ellipse cx="120" cy="120" rx="88" ry="58" fill="none" stroke="#8B5CF6" stroke-width="0.8" stroke-opacity="0.18"/>
      <ellipse cx="120" cy="120" rx="30" ry="88" fill="none" stroke="#8B5CF6" stroke-width="0.8" stroke-opacity="0.18"/>
      <ellipse cx="120" cy="120" rx="60" ry="88" fill="none" stroke="#8B5CF6" stroke-width="0.8" stroke-opacity="0.18"/>
      <line x1="120" y1="32" x2="120" y2="208" stroke="#8B5CF6" stroke-width="0.8" stroke-opacity="0.18"/>

      <rect x="0" y="175" width="240" height="65" fill="#0F172A" fill-opacity="0.6"/>

      <rect x="15" y="148" width="22" height="92" fill="url(#brandGrad)" fill-opacity="0.55" rx="2"/>
      <rect x="21" y="156" width="4" height="4" fill="#F59E0B" fill-opacity="0.6" rx="1"/>
      <rect x="29" y="156" width="4" height="4" fill="#F59E0B" fill-opacity="0.4" rx="1"/>
      <rect x="21" y="168" width="4" height="4" fill="#F59E0B" fill-opacity="0.5" rx="1"/>

      <rect x="41" y="130" width="28" height="110" fill="url(#brandGrad)" fill-opacity="0.65" rx="2"/>
      <rect x="47" y="138" width="4" height="4" fill="#F59E0B" fill-opacity="0.7" rx="1"/>
      <rect x="57" y="138" width="4" height="4" fill="#F59E0B" fill-opacity="0.45" rx="1"/>
      <rect x="47" y="150" width="4" height="4" fill="#F59E0B" fill-opacity="0.5" rx="1"/>
      <rect x="57" y="150" width="4" height="4" fill="#F59E0B" fill-opacity="0.6" rx="1"/>
      <rect x="47" y="162" width="4" height="4" fill="#F59E0B" fill-opacity="0.4" rx="1"/>

      <polygon points="73,105 86,88 99,105" fill="url(#brandGrad)" fill-opacity="0.72"/>
      <rect x="73" y="105" width="26" height="135" fill="url(#brandGrad)" fill-opacity="0.72" rx="2"/>
      <rect x="79" y="113" width="4" height="4" fill="#F59E0B" fill-opacity="0.7" rx="1"/>
      <rect x="88" y="113" width="4" height="4" fill="#F59E0B" fill-opacity="0.5" rx="1"/>
      <rect x="79" y="125" width="4" height="4" fill="#F59E0B" fill-opacity="0.6" rx="1"/>
      <rect x="88" y="125" width="4" height="4" fill="#F59E0B" fill-opacity="0.7" rx="1"/>
      <rect x="79" y="137" width="4" height="4" fill="#F59E0B" fill-opacity="0.45" rx="1"/>
      <rect x="88" y="137" width="4" height="4" fill="#F59E0B" fill-opacity="0.6" rx="1"/>

      <rect x="108" y="120" width="24" height="120" fill="url(#brandGrad)" fill-opacity="0.88" rx="2"/>
      <rect x="104" y="102" width="32" height="22" fill="url(#brandGrad)" fill-opacity="0.82" rx="2"/>
      <rect x="110" y="82" width="20" height="24" fill="url(#brandGrad)" fill-opacity="0.78" rx="2"/>
      <line x1="120" y1="82" x2="120" y2="48" stroke="url(#brandGrad)" stroke-width="2.5" stroke-linecap="round"/>
      <g filter="url(#spireGlow)">
        <circle cx="120" cy="46" r="4" fill="url(#goldGrad)"/>
        <polygon points="120,39 121.5,44 126,46 121.5,48 120,53 118.5,48 114,46 118.5,44" fill="url(#goldGrad)"/>
      </g>
      <rect x="113" y="128" width="3" height="5" fill="#F59E0B" fill-opacity="0.8" rx="0.5"/>
      <rect x="120" y="128" width="3" height="5" fill="#F59E0B" fill-opacity="0.6" rx="0.5"/>
      <rect x="127" y="128" width="3" height="5" fill="#F59E0B" fill-opacity="0.75" rx="0.5"/>
      <rect x="113" y="142" width="3" height="5" fill="#F59E0B" fill-opacity="0.5" rx="0.5"/>
      <rect x="120" y="142" width="3" height="5" fill="#F59E0B" fill-opacity="0.7" rx="0.5"/>
      <rect x="127" y="142" width="3" height="5" fill="#F59E0B" fill-opacity="0.55" rx="0.5"/>
      <rect x="113" y="156" width="3" height="5" fill="#F59E0B" fill-opacity="0.65" rx="0.5"/>
      <rect x="120" y="156" width="3" height="5" fill="#F59E0B" fill-opacity="0.45" rx="0.5"/>
      <rect x="127" y="156" width="3" height="5" fill="#F59E0B" fill-opacity="0.7" rx="0.5"/>

      <polygon points="139,110 152,92 165,110" fill="url(#brandGrad)" fill-opacity="0.7"/>
      <rect x="139" y="110" width="26" height="130" fill="url(#brandGrad)" fill-opacity="0.7" rx="2"/>
      <rect x="145" y="118" width="4" height="4" fill="#F59E0B" fill-opacity="0.6" rx="1"/>
      <rect x="154" y="118" width="4" height="4" fill="#F59E0B" fill-opacity="0.7" rx="1"/>
      <rect x="145" y="130" width="4" height="4" fill="#F59E0B" fill-opacity="0.5" rx="1"/>
      <rect x="154" y="130" width="4" height="4" fill="#F59E0B" fill-opacity="0.45" rx="1"/>
      <rect x="145" y="142" width="4" height="4" fill="#F59E0B" fill-opacity="0.65" rx="1"/>

      <rect x="169" y="135" width="26" height="105" fill="url(#brandGrad)" fill-opacity="0.6" rx="2"/>
      <rect x="175" y="143" width="4" height="4" fill="#F59E0B" fill-opacity="0.55" rx="1"/>
      <rect x="185" y="143" width="4" height="4" fill="#F59E0B" fill-opacity="0.7" rx="1"/>
      <rect x="175" y="155" width="4" height="4" fill="#F59E0B" fill-opacity="0.6" rx="1"/>

      <rect x="199" y="152" width="20" height="88" fill="url(#brandGrad)" fill-opacity="0.5" rx="2"/>
      <rect x="205" y="160" width="4" height="4" fill="#F59E0B" fill-opacity="0.5" rx="1"/>
      <rect x="205" y="172" width="4" height="4" fill="#F59E0B" fill-opacity="0.4" rx="1"/>
    </g>

    <line x1="8" y1="240" x2="232" y2="240" stroke="url(#goldGrad)" stroke-width="1.2" stroke-opacity="0.45"/>
  </g>
</svg>
